<?xml version="1.0" encoding="utf-8"?>
<!-- Generator: Adobe Illustrator 16.0.0, SVG Export Plug-In . SVG Version: 6.00 Build 0)  -->
<!DOCTYPE svg PUBLIC "-//W3C//DTD SVG 1.1//EN" "http://www.w3.org/Graphics/SVG/1.1/DTD/svg11.dtd">
<svg version="1.1" id="Layer_1" xmlns="http://www.w3.org/2000/svg" xmlns:xlink="http://www.w3.org/1999/xlink" x="0px" y="0px"
	 width="333.596px" height="88.779px" viewBox="0 0 333.596 88.779" enable-background="new 0 0 333.596 88.779"
	 xml:space="preserve">
<g>
	<g>
		<g>
			<path fill="#221F1F" d="M81.82,48.422c-0.28,0.908-0.521,1.91-0.721,2.994c-0.157-1.135-0.362-2.164-0.613-3.078l-8.729-33.559
				h-18.62L68.64,65.676l7.388,1c0,0-3.014,4.734-6.187,6.242c-1.106,0.529-3.39,0.844-4.858,0.844
				c-1.991,0-3.783-0.176-5.326-0.525l-0.608-0.139v14.824l0.397,0.082c2.479,0.514,4.929,0.775,7.289,0.775
				c6.131,0,11.184-1.471,15.014-4.371c3.816-2.891,8.668-8.428,11.266-15.375l15.776-54.254H90.777L81.82,48.422z"/>
		</g>
		<g>
			<path fill="#221F1F" d="M212.996,13.881c-9.082,0-15.717,1.562-21.689,4.639l-0.416,0.215l5.462,12.479l0.46-0.201
				c5.628-2.477,10.322-3.732,13.949-3.732c3.834,0,5.699,1.895,5.699,5.789v0.234l-8.014,0.256
				c-7.222,0.332-12.826,1.867-16.661,4.559c-3.896,2.738-5.872,6.949-5.872,12.516c0,5.32,1.438,9.518,4.271,12.477
				c2.839,2.963,6.769,4.465,11.682,4.465c3.943,0,7.215-0.559,9.724-1.658c2.427-1.066,4.832-3.027,7.153-5.836l3.298,6.596h12.982
				l-2-33.877c0-5.93-1.86-10.619-5.533-13.936C223.834,15.557,219.621,13.881,212.996,13.881z M216.551,43.969V47.4
				c0,2.023-0.688,3.621-2.102,4.881c-1.412,1.258-3.137,1.895-5.125,1.895c-3.061,0-5.485-1.324-5.485-4.172
				c0-3.756,3.677-5.678,9.19-5.879L216.551,43.969z"/>
		</g>
		<g>
			<polygon fill="#221F1F" points="244.974,66.676 263.538,66.676 263.538,28.852 282.799,28.852 283.799,14.779 244.974,14.779 			
				"/>
		</g>
		<g>
			<path fill="#221F1F" d="M326.062,18.863c-3.658-3.307-7.872-4.982-14.496-4.982c-9.082,0-15.717,1.562-21.69,4.639l-0.418,0.215
				l5.467,12.479l0.458-0.201c5.629-2.477,10.322-3.732,13.949-3.732c3.834,0,5.699,1.895,5.699,5.789v0.234l-8.014,0.256
				c-7.22,0.332-12.827,1.867-16.661,4.559c-3.898,2.738-5.872,6.949-5.872,12.516c0,5.32,1.438,9.518,4.272,12.477
				c2.839,2.963,6.768,4.465,11.68,4.465c3.945,0,7.216-0.559,9.726-1.658c2.427-1.066,4.829-3.027,7.152-5.836l3.299,6.596h12.982
				l-2-33.877C331.596,26.869,329.734,22.18,326.062,18.863z M315.121,43.969V47.4c0,2.023-0.688,3.621-2.102,4.881
				c-1.412,1.258-3.137,1.895-5.125,1.895c-3.061,0-5.487-1.324-5.487-4.172c0-3.756,3.679-5.678,9.192-5.879L315.121,43.969z"/>
		</g>
	</g>
	<g>
		<g>
			<path fill="#221F1F" d="M42.199,29.357c-4.855-3.383-12.011-5.1-21.264-5.1h-2.062V15.24h23.383l2-15.24H14.188L0.04,14.15
				v52.525h21.568c8.967,0,15.94-1.887,20.724-5.607c4.824-3.75,7.27-9.211,7.27-16.23C49.602,37.99,47.111,32.781,42.199,29.357z
				 M28.449,50.234c-1.52,1.156-4.108,1.74-7.692,1.74h-1.883V38.689h1.792c3.445,0,6.021,0.549,7.652,1.625
				c1.587,1.049,2.359,2.646,2.359,4.883C30.678,47.449,29.949,49.098,28.449,50.234z"/>
		</g>
	</g>
	<g>
		<polygon fill="#ACD489" points="14.173,14.18 0,14.18 14.173,0.008 		"/>
	</g>
	<g>
		<path fill="#221F1F" d="M145.068,42.324c-0.354-1.971-6.465-27.045-6.465-27.045h-22.679l-5.788,51.896h17.748l2.135-35.021
			l0.008,0.025c1.604,6.777,8.783,29.996,8.783,29.996h12.479c0,0,8.104-26.889,8.682-29.537l2.137,34.537h17.748l-5.788-51.896
			h-22.273C151.795,15.279,145.498,40.232,145.068,42.324z"/>
	</g>
</g>
</svg>
